<?xml version="1.0" encoding="utf-8"?>
<!-- Generator: Adobe Illustrator 14.0.0, SVG Export Plug-In . SVG Version: 6.00 Build 43363)  -->
<!DOCTYPE svg PUBLIC "-//W3C//DTD SVG 1.1//EN" "http://www.w3.org/Graphics/SVG/1.1/DTD/svg11.dtd">
<svg version="1.1" id="sap" xmlns:svg="http://www.w3.org/2000/svg"
	 xmlns="http://www.w3.org/2000/svg" xmlns:xlink="http://www.w3.org/1999/xlink" x="0px" y="0px" width="400px" height="300px"
	 viewBox="0 0 400 300" enable-background="new 0 0 400 300" xml:space="preserve">
<path id="blue" fill="#1870C5" d="M33.252,69.468v164.98h168.532L366.747,69.485l0,0H33.252V69.468z"/>
<path id="r" fill="#1870C5" d="M246.72,217.585v12.304h1.858v-5.339h2.089l3.365,5.339h2.09l-3.599-5.339
	c1.798-0.225,3.25-1.27,3.25-3.482c0-2.426-1.483-3.482-4.41-3.482H246.72L246.72,217.585z M248.58,219.208h2.553
	c1.256,0,2.67,0.205,2.67,1.742c0,1.92-1.433,2.09-3.019,2.09h-2.204V219.208z M250.901,213.057c-5.893,0-10.913,4.54-10.913,10.68
	c0,6.185,5.021,10.796,10.913,10.796c5.81,0,10.679-4.609,10.679-10.796C261.58,217.597,256.711,213.057,250.901,213.057z
	 M250.901,214.798c4.806,0,8.589,3.884,8.589,8.938c0,5.143-3.783,8.938-8.589,8.938c-4.89,0-8.822-3.797-8.822-8.938
	C242.079,218.682,246.011,214.798,250.901,214.798z"/>
<path id="sap_1_" fill="#FFFFFF" d="M233.083,148.409h-7.229v-26.437h7.229c9.65,0,17.331,3.179,17.331,13.049
	C250.414,145.214,242.733,148.409,233.083,148.409 M155.281,167.308c-3.826,0-7.414-0.697-10.517-1.864l10.412-32.836h0.224
	l10.195,32.925c-3.071,1.101-6.566,1.775-10.304,1.775 M231.166,100.495h-32.825v78.053l-28.676-78.053h-28.423l-24.501,65.256
	c-2.589-16.447-19.627-22.143-33.022-26.389c-8.829-2.841-18.227-7.017-18.142-11.641c0.074-3.781,5.048-7.288,14.857-6.764
	c6.612,0.334,12.444,0.869,24.021,6.467l11.404-19.866c-10.564-5.397-25.203-8.785-37.18-8.812h-0.073
	c-13.972,0-25.612,4.555-32.833,12.01c-5.02,5.215-7.733,11.813-7.856,19.156c-0.186,10.059,3.518,17.197,11.27,22.906
	c6.561,4.807,14.93,7.901,22.321,10.219c9.119,2.813,16.563,5.269,16.479,10.502c-0.074,1.904-0.784,3.691-2.162,5.104
	c-2.271,2.357-5.757,3.23-10.583,3.339c-9.301,0.187-16.199-1.263-27.188-7.756L37.918,194.37
	c10.954,6.237,23.922,9.885,37.157,9.885h1.712c11.516-0.223,20.815-3.51,28.249-9.482l1.204-1.052l-3.284,8.825h29.81l5.008-15.227
	c5.236,1.772,11.202,2.77,17.518,2.77c6.162,0,11.976-0.93,17.121-2.622l4.813,15.079h48.64v-31.535h10.611
	c25.63,0,40.809-13.047,40.809-34.939c0-24.367-14.739-35.545-46.119-35.545"/>
</svg>
